<svg width="46" height="46" viewBox="0 0 46 46" fill="none" xmlns="http://www.w3.org/2000/svg">
<path d="M24.7537 31.2323C24.7537 31.2323 24.7522 31.2303 24.7493 31.2263C24.6608 31.1043 23.2708 29.138 23.2708 26.0423C23.2708 22.845 24.0122 21.5012 24.7537 20.6207C25.4951 19.7403 26.2365 19.1379 27.256 18.4891C28.1578 17.9152 28.9705 17.7477 30.3606 16.8209L30.3607 16.8209C31.7508 15.8942 31.8899 15.8015 33.0946 14.7357C34.0179 13.919 35.1335 12.3261 35.1335 12.3261C35.1335 12.3261 36.37 16.3503 36.4774 18.0258C36.709 21.6402 36.431 22.2889 35.9676 24.6522C35.5042 27.0155 33.2886 30.4115 31.7883 31.742C28.0261 35.0784 26.0512 36.1905 26.0512 36.1905C26.0512 36.1905 26.5344 31.8435 27.4413 29.1934C28.4294 26.3063 30.824 22.1499 30.824 22.1499C29.681 23.4165 28.5534 24.0034 27.256 26.135C25.9585 28.2666 25.5414 29.5641 24.7537 31.2323Z" fill="url(#paint0_linear_4_18)"/>
<path d="M24.7493 31.2263C24.6608 31.1043 23.2708 29.138 23.2708 26.0423C23.2708 22.845 24.0122 21.5012 24.7537 20.6207C24.7537 20.6207 23.5585 21.7771 23.0391 22.6596C22.2814 23.9473 22.205 25.0692 22.4831 26.5521C22.873 28.6314 24.6491 31.089 24.7493 31.2263Z" fill="#6CADC1"/>
<path d="M20.9854 26.4594C19.1164 25.2546 17.9331 25.3009 15.054 22.4743C13.2482 20.7013 12.8298 18.8135 12.5518 16.4966C12.2737 14.1797 13.5249 11.0286 13.5249 11.0286C13.5249 11.0286 13.8024 11.2799 13.9883 11.3993C14.637 11.8164 17.5345 12.9524 19.7342 14.226C20.6147 14.7357 21.7263 15.4735 22.3292 16.2649C23.3839 17.6493 23.6857 19.0537 23.6267 19.2306C23.534 19.5086 21.8195 22.0109 21.6805 21.9182C21.5415 21.8255 20.8464 19.833 19.7342 18.8135C18.6221 17.7941 17.649 17.4234 17.649 17.4234C18.4522 18.69 19.4885 19.6275 20.105 21.3158C20.7817 23.1694 20.8 24.8684 20.9854 26.4594Z" fill="url(#paint1_linear_4_18)"/>
<path d="M24.3938 36.484C21.8452 36.2987 18.7869 35.8816 16.0992 34.4451C13.4116 33.0086 12.4385 32.2208 10.9093 29.3478C9.38012 26.4748 9.19477 21.2386 9.28745 21.1922C9.38013 21.1459 10.1215 20.8215 11.0947 22.3044C12.0678 23.7872 12.4385 26.6139 14.0603 28.4674C15.6822 30.321 17.2577 30.5526 17.2577 30.5526C17.2577 30.5526 14.8944 27.8187 14.5701 27.0773C14.2457 26.3358 14.4604 25.843 14.6164 25.6871C14.9682 25.3353 15.4505 25.4091 16.3309 25.8261C17.2114 26.2432 20.6868 28.8381 21.4745 29.5795C22.2794 30.3371 22.5363 30.7774 22.8571 31.3274L22.8647 31.3404C23.2512 32.003 24.2085 33.2403 24.3938 36.484Z" fill="url(#paint2_linear_4_18)"/>
<path d="M24.3938 36.484C21.8452 36.2987 18.7869 35.8816 16.0992 34.4451C13.4116 33.0086 12.4385 32.2208 10.9093 29.3478C9.38012 26.4748 9.19477 21.2386 9.28745 21.1922C9.38013 21.1459 10.1215 20.8215 11.0947 22.3044C12.0678 23.7872 12.4385 26.6139 14.0603 28.4674C15.6822 30.321 17.2577 30.5526 17.2577 30.5526C17.2577 30.5526 14.8944 27.8187 14.5701 27.0773C14.2457 26.3358 14.4604 25.843 14.6164 25.6871C14.9682 25.3353 15.4505 25.4091 16.3309 25.8261C17.2114 26.2432 20.6868 28.8381 21.4745 29.5795C22.2794 30.3371 22.5363 30.7774 22.8571 31.3274L22.8647 31.3404C23.2512 32.003 24.2085 33.2403 24.3938 36.484Z" fill="url(#paint3_linear_4_18)"/>
<path d="M29.4714 12.7895C29.4714 14.6321 27.9777 16.1259 26.135 16.1259C24.2924 16.1259 22.7986 14.6321 22.7986 12.7895C22.7986 10.9469 24.2924 9.45311 26.135 9.45311C27.9777 9.45311 29.4714 10.9469 29.4714 12.7895Z" fill="url(#paint4_linear_4_18)"/>
<path fill-rule="evenodd" clip-rule="evenodd" d="M22.7523 0C35.318 0 45.5046 10.1866 45.5046 22.7523C45.5046 35.3181 35.318 45.5046 22.7523 45.5046C10.1866 45.5046 0 35.3181 0 22.7523C0 10.1866 10.1866 0 22.7523 0ZM22.7523 1.32251C10.8148 1.32251 1.32251 10.8149 1.32251 22.7523C1.32251 34.6898 10.8148 44.1812 22.7523 44.1812C34.6898 44.1812 44.1811 34.6898 44.1811 22.7523C44.1811 10.8149 34.6898 1.32251 22.7523 1.32251Z" fill="url(#paint5_linear_4_18)"/>
<defs>
<linearGradient id="paint0_linear_4_18" x1="22.7523" y1="0" x2="22.7523" y2="45.5046" gradientUnits="userSpaceOnUse">
<stop stop-color="#C6E0DF"/>
<stop offset="1" stop-color="#69ABC1"/>
</linearGradient>
<linearGradient id="paint1_linear_4_18" x1="22.7523" y1="0" x2="22.7523" y2="45.5046" gradientUnits="userSpaceOnUse">
<stop stop-color="#B18FC2"/>
<stop offset="1" stop-color="#7D40A7"/>
</linearGradient>
<linearGradient id="paint2_linear_4_18" x1="43.9403" y1="-64.0909" x2="43.9403" y2="70.7747" gradientUnits="userSpaceOnUse">
<stop stop-color="#85619E"/>
<stop offset="1" stop-color="#6A40A2"/>
</linearGradient>
<linearGradient id="paint3_linear_4_18" x1="43.9403" y1="-64.0909" x2="43.9403" y2="70.7747" gradientUnits="userSpaceOnUse">
<stop stop-color="#85619E"/>
<stop offset="1" stop-color="#6A40A2"/>
</linearGradient>
<linearGradient id="paint4_linear_4_18" x1="22.7523" y1="0" x2="22.7523" y2="45.5046" gradientUnits="userSpaceOnUse">
<stop stop-color="#C3A5D9"/>
<stop offset="1" stop-color="#B792D5"/>
</linearGradient>
<linearGradient id="paint5_linear_4_18" x1="22.7523" y1="2.83652e-06" x2="22.7523" y2="45.5046" gradientUnits="userSpaceOnUse">
<stop stop-color="#D0BBE4"/>
<stop offset="1" stop-color="#7643A8"/>
</linearGradient>
</defs>
</svg>
